<svg version="1.1" xmlns="http://www.w3.org/2000/svg" xmlns:xlink="http://www.w3.org/1999/xlink">

	<symbol id="logo" viewBox="0 0 52 63">
		<path fill-rule="evenodd" clip-rule="evenodd" d="M19.8306 9.43194C19.8306 4.16674 23.5998 0 28.9387 0C35.1798 0 38.0468 4.56516 38.0468 9.8676C38.0468 10.266 38.0468 10.7352 38.0132 11.1671H25.9337C26.4333 13.1332 27.8687 14.1312 29.8372 14.1312C31.3397 14.1312 32.5402 13.5652 33.8413 12.2991L37.3459 15.1998C35.6122 17.3968 33.1106 18.8639 29.5054 18.8639C23.8347 18.8639 19.8306 15.0956 19.8306 9.43194ZM28.9722 4.6657C27.3057 4.6657 26.1723 5.96525 25.8368 7.93132H32.1077C31.8765 5.93173 30.7059 4.6657 28.9722 4.6657ZM45.7606 4.03269V0.398432H39.4225V18.4282H45.7606V12.8316C45.7606 8.66488 47.6284 6.76583 50.9317 6.76583H51.4648V0.100542C48.4636 -0.0335088 46.7933 1.56765 45.7606 4.03269ZM13.7647 17.9888L20.949 0.379826H13.843L10.5845 9.8639L7.24027 0.379826H0L7.26636 17.9888H13.7647ZM19.8231 50.9392V44.2739C16.8219 44.1398 15.1516 45.741 14.1152 48.206V44.5718H7.77716V62.6015H14.1152V57.0049C14.1152 52.8382 15.983 50.9392 19.2863 50.9392H19.8231ZM17.8099 40.4907C16.6765 41.1237 15.174 41.5259 13.4068 41.5259C9.60029 41.5259 7.33351 39.8577 7.33351 35.5606V28.2251H5.19722V23.1274H7.33351V20.3235L13.6715 19.3331V23.1274H17.8807V28.2288H13.6753V34.3281C13.6753 35.5941 14.242 36.1266 15.4089 36.1266C16.2403 36.1266 17.0419 35.8957 17.8099 35.5271V40.4907ZM27.5481 22.5316C22.2092 22.5316 18.4399 26.6984 18.4399 31.9636C18.4399 37.6272 22.4441 41.3955 28.1148 41.3955C31.72 41.3955 34.2216 39.9284 35.9553 37.7315L32.4507 34.8308C31.1496 36.0968 29.9491 36.6628 28.4466 36.6628C26.4781 36.6628 25.0427 35.6649 24.5431 33.6988H36.6226C36.6562 33.2668 36.6562 32.7977 36.6562 32.3992C36.6599 27.0968 33.7892 22.5316 27.5481 22.5316ZM24.4462 30.463C24.7817 28.4969 25.9151 27.1973 27.5816 27.1973C29.3153 27.1973 30.4859 28.4634 30.7171 30.463H24.4462ZM20.5277 45.7075C22.5634 44.8734 24.7332 44.3074 27.8351 44.3074C31.0712 44.3074 33.2746 45.0745 34.71 46.5043C36.0783 47.8374 36.645 49.7029 36.645 52.235V62.5978H30.3703V60.7323C29.1363 62.0989 27.4325 63 25.065 63C21.6276 63 18.9917 61.0339 18.9917 57.3699C18.9917 53.6388 21.8252 51.7062 26.0642 51.7062C27.7345 51.7062 29.3712 52.0377 30.4039 52.4063V52.1047C30.4039 50.2354 29.2369 49.1705 26.8024 49.1705C24.8973 49.1705 23.4321 49.5391 21.8289 50.1721L20.5277 45.7075ZM27.3355 59.0343C29.1698 59.0343 30.471 57.8688 30.471 56.0703V55.2325C29.8372 54.9681 28.9387 54.7671 28.0029 54.7671C26.1649 54.7671 25.0986 55.6682 25.0986 57.0683C25.0986 58.3008 26.0344 59.0343 27.3355 59.0343Z" />
	</symbol>
	<symbol id="arrow-right" viewBox="0 0 30 8">
		<path d="M1 3.5C0.723858 3.5 0.5 3.72386 0.5 4C0.5 4.27614 0.723858 4.5 1 4.5V3.5ZM29.3536 4.35355C29.5488 4.15829 29.5488 3.84171 29.3536 3.64645L26.1716 0.464466C25.9763 0.269204 25.6597 0.269204 25.4645 0.464466C25.2692 0.659728 25.2692 0.976311 25.4645 1.17157L28.2929 4L25.4645 6.82843C25.2692 7.02369 25.2692 7.34027 25.4645 7.53553C25.6597 7.7308 25.9763 7.7308 26.1716 7.53553L29.3536 4.35355ZM1 4.5H29V3.5H1V4.5Z" />
	</symbol>
	<symbol id="facebook" viewBox="0 0 8 17">
		<path d="M7.52562 2.87827C6.95521 2.87827 6.38115 2.87827 5.81099 2.87827C5.4501 2.85491 5.07778 3.13038 5.01183 3.49127C5.00404 4.11595 5.00794 4.74038 5.00794 5.36505C5.84579 5.36895 6.68388 5.36505 7.52197 5.36895C7.45992 6.27275 7.34749 7.17289 7.2156 8.06525C6.4746 8.07304 5.7336 8.06525 4.9926 8.06915C4.98482 10.7343 4.9965 13.3956 4.98871 16.061C3.88683 16.0649 2.78908 16.0571 1.6872 16.0649C1.66773 13.3997 1.6872 10.7345 1.67552 8.06915C1.14015 8.06525 0.600889 8.07304 0.0655212 8.06525C0.0694148 7.169 0.0655212 6.27299 0.0655212 5.38063C0.600889 5.37284 1.14015 5.38063 1.67552 5.37674C1.69109 4.50774 1.65994 3.63484 1.69109 2.76585C1.74925 2.07133 2.00915 1.37705 2.52529 0.899847C3.14997 0.30632 4.0343 0.104583 4.87239 0.081222C5.75696 0.0734348 6.64154 0.0773284 7.52587 0.0773284C7.52952 1.01227 7.52952 1.94333 7.52562 2.87827Z" />
	</symbol>
	<symbol id="vk" viewBox="0 0 17 10">
		<path d="M14.2038 5.58617C14.2983 5.70298 14.5229 5.93051 14.8782 6.26925H14.8864L14.8947 6.27728L14.903 6.2858L14.9198 6.30235C15.7024 7.02947 16.2324 7.64296 16.5101 8.14255C16.5269 8.17005 16.5449 8.20509 16.5643 8.2467C16.5836 8.28832 16.603 8.36181 16.6225 8.46718C16.6417 8.57304 16.6403 8.66697 16.6184 8.75019C16.5962 8.83318 16.5269 8.91007 16.4103 8.97919C16.2937 9.04878 16.1299 9.08334 15.919 9.08334L13.7875 9.11692C13.6544 9.14466 13.4989 9.13079 13.3212 9.07531C13.1433 9.01958 12.9993 8.9585 12.8883 8.89207L12.7216 8.79181C12.5549 8.67524 12.3607 8.4976 12.1388 8.25912C11.9166 8.02039 11.7266 7.80527 11.5684 7.61375C11.4102 7.42224 11.2408 7.26163 11.0603 7.13071C10.8797 7.00027 10.723 6.9572 10.5899 7.00173C10.5733 7.00757 10.5509 7.01731 10.5232 7.03093C10.4952 7.0448 10.4482 7.08471 10.3816 7.15163C10.3149 7.21831 10.2553 7.30032 10.2025 7.39717C10.1497 7.49451 10.1024 7.63882 10.0608 7.83034C10.0192 8.02161 10.001 8.23697 10.0068 8.4757C10.0068 8.55868 9.99683 8.63533 9.9776 8.70469C9.95814 8.77404 9.93721 8.82539 9.91506 8.85848L9.88173 8.9001C9.78171 9.00595 9.63473 9.06679 9.44053 9.08334H8.48296C8.08873 9.10573 7.68356 9.05998 7.26743 8.94609C6.8513 8.83196 6.48604 8.68522 6.1726 8.50465C5.85868 8.32458 5.57299 8.14133 5.31504 7.95542C5.05685 7.76925 4.8612 7.60986 4.72808 7.47675L4.52002 7.27672C4.46454 7.22148 4.38813 7.13801 4.29103 7.0268C4.19393 6.91583 3.9956 6.66348 3.6958 6.26925C3.39599 5.87503 3.10178 5.45622 2.81317 5.01187C2.52456 4.56776 2.1846 3.98202 1.79305 3.25489C1.40175 2.52801 1.03965 1.77314 0.706502 0.990286C0.673163 0.901707 0.656372 0.826756 0.656372 0.765675C0.656372 0.704838 0.664646 0.660305 0.681437 0.63232L0.714776 0.582433C0.798001 0.47682 0.956178 0.424013 1.18931 0.424013L3.4707 0.407466C3.53738 0.41866 3.60114 0.436667 3.66222 0.461732C3.7233 0.486554 3.76783 0.510159 3.79557 0.532304L3.83718 0.557368C3.92601 0.618692 3.99244 0.707271 4.03697 0.823835C4.14794 1.10174 4.2757 1.38889 4.42 1.68578C4.56431 1.98266 4.6782 2.20898 4.76142 2.36423L4.89454 2.60588C5.05539 2.93878 5.21089 3.22764 5.36079 3.47171C5.51094 3.71604 5.64527 3.90633 5.76475 4.04212C5.88399 4.17816 5.9991 4.28523 6.11031 4.36261C6.22127 4.44049 6.31569 4.47942 6.39356 4.47942C6.47119 4.47942 6.54614 4.46555 6.61842 4.43781C6.62937 4.43221 6.64324 4.41834 6.66003 4.3962C6.67682 4.37405 6.70992 4.31297 6.76005 4.21271C6.80993 4.11294 6.84741 3.9825 6.87247 3.82141C6.89754 3.6608 6.92382 3.43594 6.95156 3.14733C6.9793 2.85847 6.9793 2.5117 6.95156 2.10653C6.94037 1.88435 6.9153 1.68188 6.87661 1.49864C6.83768 1.31564 6.79874 1.18789 6.76005 1.11561L6.70992 1.01584C6.57121 0.827242 6.3354 0.707758 6.00226 0.657628C5.92998 0.646921 5.94385 0.580243 6.04387 0.458082C6.13829 0.352469 6.24366 0.269487 6.36022 0.208163C6.65443 0.0641004 7.3178 -0.00257717 8.35033 0.00813018C8.80539 0.0139706 9.18015 0.0497428 9.47436 0.11642C9.58533 0.144406 9.67829 0.181638 9.75324 0.228848C9.82819 0.275814 9.88513 0.342735 9.92407 0.428394C9.96276 0.514539 9.99196 0.603361 10.0114 0.694861C10.0309 0.786603 10.0406 0.913144 10.0406 1.07375C10.0406 1.23485 10.038 1.38767 10.0324 1.53174C10.0268 1.67604 10.0199 1.87194 10.0117 2.11869C10.0034 2.36569 9.99902 2.59493 9.99902 2.80567C9.99902 2.86699 9.99634 2.98331 9.99075 3.15536C9.98515 3.32765 9.98345 3.46076 9.98661 3.55494C9.98929 3.64936 9.99902 3.76203 10.0156 3.89222C10.0324 4.02266 10.0642 4.13119 10.1114 4.21685C10.1584 4.30299 10.221 4.37089 10.2988 4.42077C10.3431 4.43221 10.3903 4.44316 10.4405 4.45436C10.4903 4.46531 10.5624 4.43513 10.6568 4.36261C10.751 4.29058 10.8566 4.1947 10.9731 4.07546C11.0897 3.95647 11.234 3.77055 11.4061 3.51771C11.5779 3.2656 11.7667 2.96701 11.9721 2.62267C12.3052 2.04545 12.6021 1.42077 12.863 0.749127C12.8851 0.6934 12.9129 0.644974 12.9462 0.603361C12.9796 0.561505 13.01 0.532304 13.0377 0.515756L13.0711 0.490691C13.082 0.485094 13.0959 0.47828 13.1127 0.470006C13.1295 0.461976 13.1655 0.453459 13.221 0.444941C13.2764 0.436911 13.3319 0.435451 13.3877 0.441048L15.7856 0.424013C16.0019 0.396515 16.1796 0.403329 16.3183 0.444698C16.457 0.486311 16.5432 0.532304 16.5765 0.58219L16.6266 0.665415C16.7541 1.02095 16.338 1.83641 15.3778 3.11326C15.2444 3.29115 15.0638 3.5272 14.8366 3.82116C14.4036 4.37648 14.154 4.74005 14.0878 4.91258C13.9929 5.13963 14.0318 5.36448 14.2038 5.58617Z" />
	</symbol>
	<symbol id="insta" viewBox="0 0 16 16">
		<path d="M8.01256 4.11356C5.85379 4.11356 4.09714 5.84459 4.09714 7.9725C4.09714 10.1002 5.85355 11.8312 8.01256 11.8312C10.1713 11.8312 11.928 10.1002 11.928 7.9725C11.928 5.84459 10.1713 4.11356 8.01256 4.11356ZM8.01256 10.4105C6.63987 10.4105 5.52331 9.31665 5.52331 7.9725C5.52331 6.62811 6.63987 5.53445 8.01256 5.53445C9.38501 5.53445 10.5018 6.62811 10.5018 7.9725C10.5018 9.3169 9.38525 10.4105 8.01256 10.4105Z" />
		<path d="M11.1826 0.5H4.81766C2.4371 0.5 0.500122 2.42922 0.500122 4.8008V11.1992C0.500122 13.5705 2.43686 15.5 4.81766 15.5H11.1826C13.5634 15.5 15.5001 13.5705 15.5001 11.1992V4.8008C15.5001 2.42947 13.5634 0.5 11.1826 0.5ZM14.0712 11.1992C14.0712 12.7858 12.7753 14.0767 11.1826 14.0767H4.81766C3.2249 14.0767 1.929 12.7858 1.929 11.1992V4.8008C1.929 3.21421 3.2249 1.92333 4.81766 1.92333H11.1826C12.7753 1.92333 14.0712 3.21421 14.0712 4.8008V11.1992Z" />
		<path d="M11.9976 4.87361C12.5064 4.87361 12.9189 4.46275 12.9189 3.95592C12.9189 3.44909 12.5064 3.03823 11.9976 3.03823C11.4888 3.03823 11.0764 3.44909 11.0764 3.95592C11.0764 4.46275 11.4888 4.87361 11.9976 4.87361Z" />
	</symbol>
	<symbol id="youtube" viewBox="0 0 14 10">
		<path fill-rule="evenodd" clip-rule="evenodd" d="M12.0219 9.47325C13.051 9.35693 13.5404 8.8072 13.7003 7.79487C13.7003 7.79487 13.8701 6.68593 13.8699 4.7681C13.8699 3.67571 13.7898 2.66021 13.7 1.95085C13.5713 0.934383 12.9841 0.296809 11.9418 0.202633C10.7485 0.0948298 8.16506 0.0327759 6.96681 0.0327759C4.5158 0.0327759 3.42025 0.0926397 2.26142 0.212611C1.1571 0.326741 0.673325 0.817576 0.483269 1.83088C0.350157 2.54097 0.293457 3.20604 0.293457 4.77783C0.293457 6.18974 0.360135 7.07772 0.463315 7.82481C0.605187 8.85076 1.30944 9.42726 2.34148 9.51316C3.54216 9.61318 5.94742 9.66306 7.13667 9.66306C8.28601 9.66306 10.8718 9.6032 12.0219 9.47325ZM9.35458 4.78465L5.6384 6.75602V2.85319L9.35458 4.78465Z" />
	</symbol>
	<symbol id="ok" viewBox="0 0 11 17">
		<path fill-rule="evenodd" clip-rule="evenodd" d="M5.38726 0.553516C7.66193 0.58176 9.483 2.44859 9.45476 4.72324C9.42652 6.99789 7.55966 8.81896 5.28504 8.79072C3.01041 8.7625 1.18933 6.89567 1.21753 4.62102C1.24578 2.34637 3.11263 0.525295 5.38726 0.553516ZM5.31104 6.69835C6.43004 6.71222 7.3485 5.81633 7.36237 4.69728C7.37628 3.57824 6.48035 2.65982 5.3613 2.64593C4.24225 2.63204 3.32384 3.52795 3.30997 4.64698C3.29605 5.76603 4.19199 6.68446 5.31104 6.69835Z" />
		<path d="M6.04657 12.0302C6.83155 11.9591 8.03432 11.7613 8.9168 11.2101C9.95871 10.5594 10.4215 10.1716 10.0262 9.35189C9.79941 8.8818 9.16037 8.48522 8.29598 9.1491C7.12786 10.0463 5.26957 10.0232 5.26957 10.0232C5.26957 10.0232 3.41127 10.0001 2.26577 9.07427C1.41812 8.38912 0.769428 8.76973 0.531025 9.23404C0.115513 10.0434 0.568607 10.4426 1.594 11.119C2.47002 11.6969 3.68039 11.9236 4.46271 12.0125L1.34365 15.055C0.970203 15.4193 0.962787 16.0172 1.32708 16.3907L1.43689 16.5032C1.80123 16.8767 2.39907 16.8839 2.77256 16.5198L5.22965 14.123L7.6265 16.5801C7.99079 16.9535 8.58867 16.9609 8.96212 16.5966L9.07473 16.4868C9.44817 16.1225 9.45536 15.5246 9.0913 15.1512L6.04657 12.0302Z" />
	</symbol>
	<symbol id="scroll" viewBox="0 0 48 108">
		<path d="M25.3333 16H22.6667C20.2773 16 18.3333 17.944 18.3333 20.3333V26.3333C18.3333 29.458 20.8753 32 24 32C27.1247 32 29.6667 29.458 29.6667 26.3333V20.3333C29.6667 17.944 27.7227 16 25.3333 16ZM24 18.6667C24.184 18.6667 24.3333 18.816 24.3333 19V21C24.3333 21.184 24.184 21.3333 24 21.3333C23.816 21.3333 23.6667 21.184 23.6667 21V19C23.6667 18.816 23.816 18.6667 24 18.6667ZM29 26.3333C29 29.0907 26.7573 31.3333 24 31.3333C21.2427 31.3333 19 29.0907 19 26.3333V20.3333C19 18.3113 20.6447 16.6667 22.6667 16.6667H23.6667V18.0613C23.2793 18.1993 23 18.566 23 19V21C23 21.5513 23.4487 22 24 22C24.5513 22 25 21.5513 25 21V19C25 18.566 24.7207 18.1993 24.3333 18.0613V16.6667H25.3333C27.3553 16.6667 29 18.3113 29 20.3333V26.3333Z" fill="white"/>
		<circle cx="24" cy="24" r="23.75" stroke="white" stroke-width="0.5"/>
		<line x1="24.25" y1="48" x2="24.25" y2="108" stroke="white" stroke-width="0.5"/>
	</symbol>
	<symbol id="arrow-curly-right" viewBox="0 0 164 109">
		<path d="M163.5 3L158.193 0.725643L158.877 6.45852L163.5 3ZM1.45814 108.2C14.5276 78.3038 64.207 16.2098 159.103 4.02787L158.976 3.03601C63.6827 15.2689 13.7315 77.6285 0.541864 107.8L1.45814 108.2Z" fill="#939393"/>
	</symbol>
	<symbol id="arrow-curly-right-mobile" viewBox="0 0 142 196">
		<path d="M50.25 1.99999L45.627 5.45851L50.9337 7.73288L50.25 1.99999ZM60.3352 194.933C40.9788 168.666 12.0435 94.5951 48.9417 6.32168L48.0191 5.93601C10.9665 94.5788 39.9959 169.018 59.5302 195.526L60.3352 194.933Z" fill="#939393"/>
	</symbol>
	<symbol id="include-ic1" viewBox="0 0 60 64">
		<path d="M40.8 46.6667C48.1638 46.6667 54.1333 40.6971 54.1333 33.3333C54.1333 25.9695 48.1638 20 40.8 20C33.4362 20 27.4667 25.9695 27.4667 33.3333C27.4667 40.6971 33.4362 46.6667 40.8 46.6667Z" stroke="#FFCC00" stroke-width="2" stroke-miterlimit="10" stroke-linecap="round"/>
		<path d="M50.24 42.76L58.1333 50.6667" stroke="#FFCC00" stroke-width="2" stroke-miterlimit="10" stroke-linecap="round"/>
		<path d="M39.4 16.1467C36.8933 10.5733 34.1333 5.33332 24.8 6.66666C15.4667 7.99999 7.46667 14.6667 8.8 22.6667C10.1333 30.6667 10.1333 32 8.8 42.6667C7.46667 53.3333 16.8 60 24.8 57.3333C32.8 54.6667 34.8133 54.72 37.7333 50.7333" stroke="#FFCC00" stroke-width="2" stroke-miterlimit="10" stroke-linecap="round"/>
		<path d="M30.1333 1.33337L29.5467 6.58671" stroke="#FFCC00" stroke-width="2" stroke-miterlimit="10" stroke-linecap="round"/>
		<path d="M40.8 6.45337L36.24 10.4534" stroke="#FFCC00" stroke-width="2" stroke-miterlimit="10" stroke-linecap="round"/>
		<path d="M19.08 2.50671L21.6267 7.34671" stroke="#FFCC00" stroke-width="2" stroke-miterlimit="10" stroke-linecap="round"/>
		<path d="M9.19998 6.45337L13.5866 11.48" stroke="#FFCC00" stroke-width="2" stroke-miterlimit="10" stroke-linecap="round"/>
		<path d="M1.86667 17.9468L8.65334 18.7201" stroke="#FFCC00" stroke-width="2" stroke-miterlimit="10" stroke-linecap="round"/>
		<path d="M2.35999 31.1733L9.66665 28.6533" stroke="#FFCC00" stroke-width="2" stroke-miterlimit="10" stroke-linecap="round"/>
		<path d="M3.53333 38.7734L9.09332 40.3734" stroke="#FFCC00" stroke-width="2" stroke-miterlimit="10" stroke-linecap="round"/>
		<path d="M2.63998 50.1067L9.06665 48.0801" stroke="#FFCC00" stroke-width="2" stroke-miterlimit="10" stroke-linecap="round"/>
		<path d="M10.08 60.56L13.5067 55.16" stroke="#FFCC00" stroke-width="2" stroke-miterlimit="10" stroke-linecap="round"/>
		<path d="M22.1333 62.6667L20.92 57.92" stroke="#FFCC00" stroke-width="2" stroke-miterlimit="10" stroke-linecap="round"/>
		<path d="M35.4134 60.5735L31.68 55.1201" stroke="#FFCC00" stroke-width="2" stroke-miterlimit="10" stroke-linecap="round"/>
		<path d="M19.4667 38.6533C21.6758 38.6533 23.4667 36.8625 23.4667 34.6533C23.4667 32.4442 21.6758 30.6533 19.4667 30.6533C17.2575 30.6533 15.4667 32.4442 15.4667 34.6533C15.4667 36.8625 17.2575 38.6533 19.4667 38.6533Z" stroke="#FFCC00" stroke-width="2" stroke-miterlimit="10"/>
		<path d="M24.8 20.6667C24.8 18.0933 22.7067 16 20.1333 16C17.56 16 15.4667 18.0933 15.4667 20.6667C15.4667 23.24 17.56 25.3333 20.1333 25.3333C22.72 25.32 24.8 23.24 24.8 20.6667Z" stroke="#FFCC00" stroke-width="2" stroke-miterlimit="10"/>
		<path d="M24.8 45.3334V42.6667" stroke="#FFCC00" stroke-width="2" stroke-miterlimit="10" stroke-linejoin="round"/>
		<path d="M30.1333 18.6667V16" stroke="#FFCC00" stroke-width="2" stroke-miterlimit="10" stroke-linejoin="round"/>
	</symbol>
	<symbol id="include-ic2" viewBox="0 0 62 52">
		<path d="M31 9.80016C36.6 9.80016 34.85 20.6002 37.48 20.6002C41.67 20.6002 44.16 1.16016 51.52 1.16016C56.85 1.16016 60.16 9.13016 60.16 17.3602C60.16 24.1102 55.03 50.8402 45.04 50.8402C34.82 50.8402 46.19 38.9602 31 38.9602C15.81 38.9602 27.18 50.8402 16.96 50.8402C6.97 50.8402 1.84 24.1102 1.84 17.3602C1.84 9.12016 5.15 1.16016 10.48 1.16016C17.84 1.16016 20.34 20.6002 24.52 20.6002C27.15 20.6002 25.4 9.80016 31 9.80016Z" stroke="#FFCC00" stroke-width="2" stroke-miterlimit="10" stroke-linejoin="round"/>
		<path fill-rule="evenodd" clip-rule="evenodd" d="M45.7873 5.02141C45.7875 5.02149 45.7876 5.02158 46.26 4.14019C46.7324 3.25879 46.7326 3.25891 46.7329 3.25904L46.7335 3.25936L46.7351 3.26022L46.74 3.26286L46.7563 3.27173L46.8141 3.30356C46.8634 3.33095 46.9339 3.37058 47.0224 3.42169C47.1994 3.52383 47.4491 3.6722 47.7469 3.86061C48.3402 4.23602 49.1348 4.77713 49.9264 5.43466C50.7126 6.08764 51.5296 6.88291 52.1391 7.77272C52.3183 8.03439 52.485 8.31223 52.6285 8.60391C53.1348 8.04802 53.6856 7.48742 54.2093 6.97305C55.281 5.92037 56.2997 5.00315 56.733 4.6152L58.0671 6.10523C57.6404 6.48728 56.649 7.38006 55.6108 8.39989C54.5568 9.43512 53.5131 10.5448 52.9422 11.3694L52.9337 11.3815C52.8502 11.4984 52.7849 11.6019 52.7405 11.6843L52.7324 11.699C52.095 12.8367 52.0868 14.1093 52.2368 15.0381C52.3041 15.4409 52.3948 15.7486 52.4588 15.9351L52.4625 15.9421C52.4743 15.9651 52.515 16.044 52.6069 16.1872C52.7162 16.3574 52.8714 16.5778 53.0704 16.8321C53.4685 17.341 54.0244 17.9637 54.7046 18.5727C56.0841 19.8079 57.8674 20.8919 59.8117 21.0121L59.76 21.8485V22.0103L59.8896 23.0017C57.285 23.3422 54.8381 24.4123 52.838 26.0895C54.1032 28.3746 55.9163 30.3137 58.1203 31.7287L57.0397 33.4117C54.9149 32.0475 53.1128 30.2512 51.744 28.1487C50.8806 29.8639 49.6405 31.3651 48.1121 32.5338C51.1443 34.5057 53.7205 37.1171 55.6472 40.1889L53.9529 41.2516C52.2019 38.46 49.8667 36.0808 47.1191 34.2741C46.9163 35.6908 46.5053 37.0567 45.9092 38.3311C48.6165 40.7311 50.6442 43.7998 51.7979 47.2316L49.9021 47.8689C48.9062 44.9066 47.1905 42.2451 44.9088 40.124C43.7263 41.9275 42.1349 43.4689 40.2187 44.6012L39.2013 42.8793C42.4848 40.939 44.6621 37.6 45.1571 33.8613C44.1818 34.044 43.1886 34.1214 42.1974 34.0938C41.2642 36.9053 39.2327 39.242 36.5478 40.5493L35.6722 38.7511C38.0288 37.6037 39.7717 35.4867 40.4503 32.9603C40.3421 32.2324 40.0415 31.5515 39.5852 30.9878C38.4501 31.6978 37.1605 32.1679 35.7952 32.3427C35.1035 35.0668 33.7117 37.597 31.7185 39.6558L30.2816 38.2646C32.9817 35.4757 34.4244 31.6976 34.2872 27.8308C32.6842 27.1268 31.1973 26.2096 29.8621 25.1119C29.5055 27.2757 28.3978 29.2655 26.6986 30.7154C27.1416 33.5382 28.3483 36.1837 30.1934 38.3643L28.6666 39.6562C27.7062 38.5211 26.8992 37.2747 26.2594 35.9489C23.8508 36.8781 21.3186 37.3973 18.7576 37.4995C18.8883 40.4742 20.2921 43.2655 22.643 45.138L21.397 46.7024C18.5652 44.4469 16.8863 41.0765 16.7558 37.4946C16.3489 37.4763 15.9418 37.4476 15.5351 37.4083C13.3753 39.7992 11.6134 42.5177 10.3156 45.4723L8.48444 44.668C9.9133 41.415 11.8694 38.4309 14.2741 35.8232C14.3426 35.6451 14.4135 35.4682 14.4869 35.2925C11.0842 32.9753 7.30637 31.2465 3.32289 30.1866L3.83711 28.2539C5.79522 28.7748 7.70615 29.449 9.55188 30.2679C10.4052 28.8879 11.4595 27.6637 12.6671 26.6278C10.1525 23.4942 6.23969 21.7654 2.192 22.0576L2.04801 20.0628C6.77615 19.7215 11.3441 21.7509 14.2659 25.4248C14.6209 25.1917 14.9853 24.973 15.3584 24.7693C14.54 22.7838 14.327 20.6559 14.6664 18.6258C10.7637 16.761 6.24454 16.6238 2.22158 18.2845L1.45844 16.4358C4.0282 15.375 6.77671 14.9631 9.47703 15.1853C9.72092 13.5707 10.266 12.0371 11.0646 10.6544C9.39776 8.50423 6.99894 7.02428 4.32668 6.46933L4.73334 4.51111C7.65729 5.11832 10.3101 6.67265 12.2475 8.9404C13.3959 7.53308 14.845 6.36026 16.5247 5.52485L17.4153 7.31558C14.2054 8.91209 11.9932 11.9635 11.4576 15.4642C12.7304 15.7191 13.9794 16.118 15.1799 16.6593C15.8847 14.6998 17.1353 12.9208 18.8772 11.57L20.1028 13.1504C16.8085 15.7052 15.6504 20.1227 17.1739 23.9243C18.1464 23.5455 19.1618 23.2624 20.2065 23.0841C20.0952 21.3679 20.4174 19.6041 21.2218 17.9606L23.0182 18.8398C21.2586 22.4347 22.3712 26.7448 25.5642 29.05C27.1693 27.5964 28.0546 25.5129 27.983 23.34C26.8221 22.0858 25.8266 20.6714 25.0312 19.1284L26.8088 18.212C28.5668 21.622 31.4149 24.3291 34.8894 25.9093C35.8935 24.2906 36.2211 22.3293 35.786 20.4565L37.7341 20.0038C38.3326 22.5796 37.8003 25.2888 36.2715 27.4414C36.3235 28.3836 36.2929 29.3224 36.1834 30.2476C38.5772 29.7232 40.5944 28.0321 41.4974 25.6993C42.5554 22.9661 41.9113 19.8645 39.8414 17.7859L41.2586 16.3746C42.8757 17.9986 43.8069 20.1129 43.9725 22.3064C45.4472 22.446 46.8981 22.7558 48.2947 23.2285C48.3002 21.6836 48.0029 20.1749 47.4415 18.7716C46.4432 16.2757 44.6328 14.1337 42.2046 12.7488L43.1954 11.0115C45.5239 12.3396 47.3641 14.2646 48.5905 16.5214C49.0976 15.9299 49.6332 15.365 50.1944 14.8279C50.085 13.6874 50.1786 12.1698 50.9837 10.7284C51.0273 10.6479 51.0748 10.5675 51.1246 10.4886C51.0961 10.0157 50.8878 9.48511 50.4891 8.90297C50.0242 8.22434 49.3599 7.56398 48.6486 6.97321C47.9428 6.38699 47.2236 5.89623 46.6775 5.5507C46.4056 5.37864 46.1793 5.24428 46.0225 5.1538C45.9442 5.1086 45.8835 5.07445 45.8433 5.05214L45.7988 5.02767L45.7889 5.02229L45.7873 5.02141ZM15.36 33.4688C14.0771 32.61 12.7447 31.8299 11.3709 31.1324C13.4329 27.9158 16.7627 25.7043 20.5311 25.0577C20.6944 25.6693 20.9146 26.2655 21.1889 26.8378C18.7686 28.585 16.7788 30.8548 15.36 33.4688ZM24.7013 30.8854C24.8648 31.9845 25.1309 33.0606 25.4938 34.1005C22.6517 35.1895 19.6214 35.6556 16.5868 35.4835C17.8523 32.7319 19.7947 30.3452 22.2311 28.553C22.9023 29.4449 23.7301 30.2373 24.7013 30.8854ZM42.3159 32.0961C43.5165 32.1234 44.7176 31.9708 45.8706 31.6393C47.9259 30.4176 49.5055 28.5407 50.3722 26.3186C48.3784 25.2226 46.1785 24.5416 43.91 24.3099C43.8112 25.023 43.6296 25.7315 43.3626 26.4212C42.8666 27.7025 42.1069 28.8309 41.1589 29.7532C41.7091 30.4399 42.1039 31.2399 42.3159 32.0961ZM46.2394 32.5345L46.2529 32.5801L46.26 32.5802L46.2629 32.5751L46.2394 32.5345ZM51.4604 24.6351C52.8212 23.4759 54.3648 22.565 56.0203 21.9313C55.0038 21.3961 54.1103 20.7252 53.3705 20.0627C52.5931 19.3667 51.9577 18.6557 51.4952 18.0645C51.2639 17.7689 51.0715 17.4977 50.9238 17.2676C50.8805 17.2 50.8371 17.1301 50.7958 17.0597C50.3415 17.541 49.9091 18.0434 49.5007 18.5658C50.1099 20.2903 50.3834 22.1401 50.2694 24.0233C50.673 24.2128 51.0702 24.4168 51.4604 24.6351ZM26.5114 16.1905C29.7826 16.6483 32.901 17.8882 35.5896 19.8045L36.7504 18.1759C33.799 16.0722 30.3774 14.7121 26.7886 14.2098L26.5114 16.1905ZM35.2531 27.1425L35.2618 27.1493L35.25 27.1502L35.2531 27.1425Z" fill="#FFCC00"/>
	</symbol>
	<symbol id="include-ic3" viewBox="0 0 52 62">
		<path d="M1.85001 31.0002C1.85001 31.0002 5.67001 33.1902 9.51001 33.1902C21.4 33.1902 18.01 4.66016 36.3 4.66016" stroke="#FFCC00" stroke-width="2" stroke-miterlimit="10" stroke-linecap="round" stroke-linejoin="round"/>
		<path d="M35.85 4.67016C35.85 4.67016 38.86 4.66016 40.32 4.66016C41.78 4.66016 43.7 5.58016 43.7 9.05016" stroke="#FFCC00" stroke-width="2" stroke-miterlimit="10" stroke-linejoin="round"/>
		<path d="M25.87 18.93C28.06 18.93 33.37 11.25 39.22 11.25C45.07 11.25 50.1 16.83 50.1 16.83C50.1 16.83 50.73 20.76 47.39 21.92C46.55 22.21 45.63 21.85 45.21 21.07C44.5 19.77 42.99 17.84 40.23 17.84C36.07 17.84 34.74 21.13 34.74 21.13" stroke="#FFCC00" stroke-width="2" stroke-miterlimit="10" stroke-linecap="round" stroke-linejoin="round"/>
		<path d="M50.11 16.8301C50.11 16.8301 44.97 15.2201 45.07 20.8201" stroke="#FFCC00" stroke-width="2" stroke-miterlimit="10" stroke-linecap="round" stroke-linejoin="round"/>
		<path d="M18.7 23.4002C18.7 23.4002 16.45 13.4502 11.69 13.4502C11.69 13.4502 1.84 18.7102 1.84 31.0102C1.84 43.5402 22.39 60.6402 27.06 60.6402C33.74 60.6402 42.42 41.5302 42.42 31.0102C42.42 25.4302 38.85 21.3202 38.85 21.3202" stroke="#FFCC00" stroke-width="2" stroke-miterlimit="10" stroke-linejoin="round"/>
		<path d="M11.7 13.4401C11.7 13.4401 11.7 10.0801 9.19001 6.71012C8.67001 6.01012 8.60001 5.08012 9.01001 4.31012C9.69001 3.03012 11.02 1.37012 13.29 1.37012C13.75 1.37012 14.21 1.52012 14.55 1.83012C15.46 2.64012 17.14 3.57012 17.18 6.86012" stroke="#FFCC00" stroke-width="2" stroke-miterlimit="10" stroke-linecap="round" stroke-linejoin="round"/>
		<path d="M17.19 11.2501V6.86007C17.19 6.86007 16.55 3.57007 20.48 3.57007C23.81 3.57007 23.77 5.76007 23.77 5.76007V12.3401" stroke="#FFCC00" stroke-width="2" stroke-miterlimit="10" stroke-linecap="round" stroke-linejoin="round"/>
		<path d="M14.55 1.83008C14.55 1.83008 14.55 7.11008 9.29001 6.86008" stroke="#FFCC00" stroke-width="2" stroke-miterlimit="10" stroke-linecap="round" stroke-linejoin="round"/>
		<path d="M17.15 6.34001C17.15 6.34001 20.46 8.41001 23.77 5.76001" stroke="#FFCC00" stroke-width="2" stroke-miterlimit="10" stroke-linecap="round" stroke-linejoin="round"/>
		<path d="M29.26 23.3201V29.9001L33.65 32.1001L36.94 35.3901" stroke="#FFCC00" stroke-width="2" stroke-miterlimit="10" stroke-linecap="round" stroke-linejoin="round"/>
		<path d="M33.65 32.1001L32.55 37.5801" stroke="#FFCC00" stroke-width="2" stroke-miterlimit="10" stroke-linecap="round" stroke-linejoin="round"/>
		<path d="M29.26 29.9001L24.87 37.5801V50.7501" stroke="#FFCC00" stroke-width="2" stroke-miterlimit="10" stroke-linecap="round" stroke-linejoin="round"/>
		<path d="M24.87 41.9702L30.35 47.4602" stroke="#FFCC00" stroke-width="2" stroke-miterlimit="10" stroke-linecap="round" stroke-linejoin="round"/>
		<path d="M24.87 37.5801L19.38 40.8801L16.09 38.6801L12.8 39.7801" stroke="#FFCC00" stroke-width="2" stroke-miterlimit="10" stroke-linecap="round" stroke-linejoin="round"/>
		<path d="M19.38 40.8801L18.28 45.2701" stroke="#FFCC00" stroke-width="2" stroke-miterlimit="10" stroke-linecap="round" stroke-linejoin="round"/>
	</symbol>
	<symbol id="include-bg1" viewBox="0 0 750 960">
		<path d="M620.024 454.434C644.646 456.514 669.637 459.005 689.442 473.471C709.216 487.915 719.008 511.003 728.597 533.743C730.503 538.261 732.599 542.806 734.707 547.377C738.436 555.465 742.203 563.631 745.011 571.863C749.395 584.715 751.385 597.585 747.184 610.262C742.997 622.898 732.892 630.856 721.249 637.969C718.341 639.746 715.344 641.467 712.323 643.194L711.743 643.526C708.915 645.143 706.07 646.769 703.272 648.452C697.295 652.047 691.513 655.91 686.518 660.525C680.525 666.063 675.35 672.742 670.467 679.704C668.304 682.788 666.208 685.911 664.124 689.018C661.48 692.959 658.855 696.872 656.133 700.643C646.427 714.091 635.786 725.293 619.987 727.814C604.167 730.339 589.364 724.848 575.408 716.049C563.943 708.821 553.1 699.396 542.768 690.414C540.514 688.456 538.285 686.518 536.079 684.628C513.223 665.056 492.873 641.76 485.659 612.671C478.739 584.767 487.533 556.311 497.535 529.17C507.177 503.004 517.943 475.356 541.544 460.954C552.967 453.982 565.833 451.774 579.234 451.602C589.208 451.473 599.439 452.471 609.576 453.46C613.075 453.802 616.562 454.142 620.024 454.434Z" stroke="white"/>
		<path opacity="0.2" d="M513.693 686.436C520.309 692.418 527.758 697.808 535.279 703.067C536.661 704.033 538.047 704.996 539.429 705.957C545.575 710.227 551.677 714.466 557.347 718.941C571.236 729.903 582.428 742.197 585.158 759.564C587.893 776.968 581.655 792.551 572.134 807.47C567.374 814.929 561.803 822.207 556.139 829.455C555.351 830.463 554.561 831.471 553.771 832.479C548.889 838.708 544.013 844.929 539.619 851.219C534.914 857.956 530.483 865.175 526.05 872.399C525.483 873.322 524.916 874.246 524.349 875.168C519.34 883.314 514.28 891.39 508.754 898.746C497.703 913.458 484.831 925.229 466.879 928.885C448.544 932.619 431.015 927.862 414.342 919.226C397.851 910.684 382.246 898.372 367.572 886.794L367.068 886.396C352.935 875.247 338.534 863.158 327.301 849.388C316.07 835.623 308.026 820.203 306.572 802.39C305.178 785.312 312.444 770.848 322.273 756.848C325.92 751.653 329.908 746.538 333.93 741.38C335.329 739.585 336.732 737.785 338.126 735.975C343.522 728.971 348.774 721.823 353.088 714.277C358.478 704.848 362.565 693.918 366.326 682.739C367.442 679.422 368.529 676.085 369.613 672.758C372.187 664.854 374.744 657.005 377.629 649.615C385.833 628.608 396.598 611.588 417.616 607.946C438.585 604.312 454.547 616.541 469.343 633.478C474.931 639.875 480.329 646.915 485.757 653.994C487.511 656.282 489.269 658.574 491.036 660.849C498.264 670.152 505.661 679.172 513.693 686.436Z" stroke="white"/>
		<path opacity="0.3" d="M46.5606 213.946C67.2574 217.024 83.5585 228.873 97.678 244.343C109.069 256.824 119.006 271.62 128.676 286.019C131 289.48 133.31 292.918 135.62 296.296C153.934 323.073 167.564 353.275 163.751 385.353C162.033 399.81 155.265 411.926 146.415 423.142C140.473 430.672 133.623 437.764 126.744 444.885C123.358 448.39 119.965 451.902 116.671 455.477C112.189 460.341 107.857 465.523 103.531 470.699C102.706 471.686 101.881 472.673 101.055 473.657C95.8952 479.809 90.6992 485.869 85.1985 491.322C74.1976 502.23 62.0205 510.669 46.574 512.542C13.248 516.584 -20.385 499.99 -42.8315 474.917C-53.5035 462.996 -58.416 448.619 -61.2389 433.198C-62.6505 425.486 -63.5378 417.525 -64.3647 409.484C-64.4815 408.349 -64.5971 407.211 -64.7128 406.073C-65.4156 399.158 -66.1225 392.203 -67.1265 385.34C-68.6453 374.956 -71.2548 364.396 -73.9453 353.871C-74.2012 352.87 -74.4578 351.869 -74.7143 350.869C-77.1568 341.344 -79.5879 331.864 -81.2723 322.553C-84.995 301.975 -85.0485 282.334 -73.5741 265.064C-48.5513 227.404 1.80135 207.291 46.5606 213.946Z" stroke="white"/>
		<path opacity="0.2" d="M557.892 107.11C573.597 104.732 590.555 102.578 606.706 103.453C622.855 104.328 638.152 108.227 650.564 117.918C663.014 127.637 668.175 142.181 671.825 158.054C672.737 162.019 673.553 166.061 674.366 170.126L674.553 171.06C675.304 174.815 676.058 178.588 676.887 182.327C678.681 190.424 680.831 198.389 684.074 205.743C688.384 215.515 694.446 224.488 700.432 233.348C702.286 236.091 704.132 238.824 705.916 241.565C713.483 253.193 719.971 265.025 721.457 278.754C724.557 307.401 714.021 335.548 700.978 361.386C687.418 388.248 671.535 415.857 645.152 429.935C632.091 436.904 617.716 439.416 602.871 439.903C590.493 440.309 577.82 439.308 565.325 438.321C562.826 438.123 560.335 437.926 557.854 437.742C529.883 435.656 503.305 428.81 477.678 417.401C476.698 416.965 475.717 416.529 474.735 416.092C447.682 404.069 420.053 391.789 402.192 368.475C382.58 342.878 367.2 310.597 371.356 278.765C373.396 263.142 381.544 250.059 391.717 237.759C396.559 231.905 401.848 226.24 407.147 220.566C407.415 220.279 407.683 219.992 407.951 219.705C413.513 213.747 419.059 207.768 424.055 201.561L424.621 200.858C441.551 179.822 458.011 159.369 480.013 143.849C503.932 126.976 529.068 111.474 557.892 107.11Z" stroke="white"/>
		<path opacity="0.1" d="M302.81 348.614C304.036 348.806 305.263 348.997 306.492 349.188C332.274 353.199 358.467 357.274 379.194 372.745C389.52 380.452 395.969 391.288 401.844 402.828C403.019 405.135 404.172 407.471 405.328 409.816C409.94 419.168 414.615 428.648 421.029 436.9C425.84 443.091 431.919 448.531 438.35 453.685C441.461 456.178 444.66 458.608 447.84 461.024L448.163 461.27C451.451 463.768 454.716 466.253 457.852 468.788C470.412 478.939 480.78 489.788 482.116 505.073C483.428 520.083 476.717 533.446 466.944 545.815C459.97 554.64 451.482 562.907 443.297 570.879C439.999 574.092 436.749 577.257 433.668 580.391C424.716 589.496 414.199 596.182 403.105 602.173C398.215 604.814 393.218 607.316 388.195 609.832C387.519 610.17 386.843 610.509 386.167 610.848C380.464 613.708 374.743 616.61 369.137 619.768C363.582 622.898 358.23 626.588 352.94 630.361C351.761 631.202 350.586 632.046 349.412 632.889C345.312 635.836 341.23 638.768 337.086 641.477C326.425 648.444 315.428 653.871 302.877 654.126C290.295 654.382 279.153 649.2 268.225 642.565C264.65 640.394 261.112 638.078 257.556 635.749C255.674 634.516 253.786 633.28 251.885 632.06C246.403 628.543 240.83 625.177 235.023 622.484C226.372 618.473 217.062 615.581 207.844 612.717C203.378 611.33 198.933 609.949 194.595 608.451C181.263 603.846 168.864 598.116 159.558 587.664C139.8 565.474 129.071 534.741 130.328 505.051C130.946 490.445 136.603 477.338 143.811 464.572C146.799 459.28 150.047 454.057 153.309 448.812C153.982 447.73 154.656 446.647 155.328 445.562C159.254 439.224 163.124 432.83 166.485 426.248C170.04 419.284 172.94 411.751 175.71 404.145C176.333 402.434 176.949 400.72 177.565 399.007C179.689 393.099 181.805 387.213 184.164 381.556C190.249 366.962 197.906 354.009 211.292 346.389C224.693 338.76 239.832 338.086 255.518 339.946C263.36 340.876 271.322 342.437 279.259 344.07C280.408 344.306 281.557 344.544 282.705 344.782C289.478 346.185 296.218 347.581 302.81 348.614Z" stroke="white"/>
		<path opacity="0.3" d="M226.476 21.6396C235.059 23.2014 244.069 22.6186 252.927 22.0457C255.204 21.8984 257.47 21.7518 259.717 21.6424C270.751 21.1052 281.342 21.4573 290.628 26.8435C299.896 32.2192 305.067 41.574 309.885 51.606C310.472 52.8281 311.054 54.0605 311.637 55.2965C315.821 64.1591 320.091 73.2053 326.985 79.9561C334.803 87.6116 345.06 92.5497 355.123 97.3942C356.884 98.2418 358.639 99.0865 360.373 99.9424C372.069 105.713 382.875 111.997 388.884 123.05C400.859 145.076 399.683 173.805 391.021 197.431C386.798 208.95 377.874 217.252 368.239 225.324C367.025 226.341 365.8 227.355 364.572 228.371C356.084 235.391 347.458 242.526 341.545 251.718C337.687 257.715 335.264 264.885 333.382 272.385C332.293 276.726 331.376 281.22 330.468 285.669C329.813 288.877 329.163 292.061 328.457 295.147C325.059 309.996 320.309 322.829 307.365 327.636C293.76 332.69 280.715 326.848 267.444 318.421C264.133 316.318 260.817 314.061 257.482 311.782L256.828 311.335C253.711 309.204 250.575 307.06 247.419 305.019C240.667 300.652 233.791 296.734 226.723 294.376C218.048 291.481 209.065 290.135 200.16 288.801C199.145 288.649 198.131 288.497 197.118 288.343C187.205 286.834 177.431 285.121 168.209 281.095C149.307 272.844 133.099 260.435 117.582 246.76C115.813 245.201 114.035 243.648 112.256 242.095C96.2801 228.148 80.2965 214.193 70.9171 195.365C59.3979 172.241 52.0965 146.308 54.7273 120.677C57.4561 94.0908 69.3555 68.8219 86.0509 47.9041C102.784 26.9396 123.809 6.16652 149.991 1.25267C162.999 -1.18863 175.462 2.65774 188.034 7.76778C190.844 8.91032 193.662 10.1171 196.492 11.3289C206.277 15.5194 216.205 19.771 226.476 21.6396Z" stroke="white"/>
	</symbol>
	<symbol id="include-bg2" viewBox="0 0 809 869">
		<path opacity="0.6" d="M674.107 278.192C688.237 243.358 718.256 221.238 751.955 204.266C752.883 203.799 753.813 203.329 754.746 202.859C772.533 193.89 791.073 184.541 809.723 179.164C829.341 173.509 849.025 172.267 868.026 180.465C908.648 197.992 931.843 241.154 939.073 284.949C946.076 327.364 930.842 368.52 904.643 402.711C875.956 440.147 839.44 475.449 792.527 476.249C743.065 477.092 695.13 449.244 669.726 406.778C646.614 368.143 657.094 320.131 674.107 278.192Z" stroke="white"/>
		<path opacity="0.1" d="M140.188 253.762C143.166 242.472 144.864 229.904 146.435 217.225C146.608 215.827 146.779 214.428 146.951 213.029C148.337 201.726 149.722 190.432 151.916 179.927C156.851 156.3 165.832 136.876 187.872 130.373C209.966 123.855 227.114 136.559 243.706 154.373C248.562 159.587 253.34 165.203 258.17 170.881C261.596 174.909 265.049 178.968 268.575 182.937C277.049 192.473 285.902 201.433 295.667 207.955C303.151 212.953 311.763 216.601 320.594 219.799C324.473 221.204 328.4 222.524 332.295 223.833C332.835 224.015 333.374 224.196 333.913 224.377C338.338 225.867 342.708 227.356 346.918 228.958C363.781 235.374 377.93 243.545 382.649 260.52C387.541 278.115 382.768 295.281 373.377 311.237C363.985 327.198 350.002 341.898 336.568 354.52C314.574 375.186 285.351 379.068 255.273 383.063C253.995 383.233 252.715 383.403 251.435 383.575C240.042 385.1 228.028 388.028 215.976 391.009C215.539 391.118 215.101 391.226 214.664 391.334C203.037 394.212 191.392 397.094 180.203 398.791C156.972 402.314 135.883 400.703 121.139 383.501C106.302 366.19 108.031 345.024 115.038 322.472C118.199 312.294 122.424 301.872 126.657 291.428C127.113 290.305 127.568 289.182 128.022 288.059C132.694 276.501 137.237 264.95 140.188 253.762Z" stroke="white"/>
		<path opacity="0.5" d="M608.83 585.26C608.133 582.191 607.352 578.952 606.542 575.598C603.532 563.123 600.136 549.052 599.285 536.159C598.203 519.783 601.242 505.576 614.115 498.926C621.487 495.118 628.787 495.232 636.151 497.621C643.537 500.017 650.966 504.694 658.56 509.99C660.686 511.473 662.826 513.006 664.98 514.548C670.495 518.497 676.103 522.512 681.809 525.936C689.752 530.701 697.951 534.363 706.484 535.148C711.861 535.643 716.986 533.906 721.915 531.212C726.181 528.881 730.344 525.807 734.425 522.794C735.054 522.329 735.681 521.866 736.306 521.408C741.008 517.959 745.603 514.757 750.206 512.939C754.791 511.129 759.346 510.706 763.998 512.771C773.424 516.953 777.301 526.208 779.654 537.089C780.535 541.163 781.197 545.433 781.861 549.723C782.083 551.157 782.306 552.593 782.537 554.024C783.457 559.725 784.514 565.346 786.232 570.391C788.297 576.453 789.597 582.601 790.897 588.752C791.138 589.891 791.379 591.031 791.625 592.17C793.195 599.444 794.961 606.684 798.201 613.655C801.376 620.488 805.845 626.822 810.71 632.931C813.142 635.987 815.678 638.991 818.201 641.975L818.514 642.344C820.934 645.205 823.339 648.049 825.637 650.911C835.235 662.865 842.869 675.033 841.756 689.738C840.679 703.979 833.331 716.403 823.147 727.172C812.963 737.941 799.973 747.02 787.682 754.563C774.673 762.547 760.014 770.774 745.086 775.584C730.158 780.394 715.013 781.771 700.998 776.123C686.645 770.338 677.046 758.473 669.575 744.366C664.198 734.214 659.949 722.956 655.82 712.017C654.204 707.738 652.608 703.507 650.969 699.411C647.181 689.943 647.778 679.77 648.455 669.438C648.466 669.272 648.477 669.106 648.488 668.94C649.153 658.811 649.828 648.54 646.267 638.891C642.616 629 635.179 621.294 627.88 613.729C627.381 613.213 626.883 612.697 626.387 612.181C618.595 604.075 611.26 595.967 608.83 585.26Z" stroke="white"/>
		<path opacity="0.1" d="M368.058 688.044C372.924 665.141 383.099 642.9 400.286 627.096C417.178 611.564 440.294 605.786 462.884 600.884C484.584 596.176 506.302 596.771 528.41 599.336C534.434 600.035 540.77 600.32 547.135 600.607L548.073 600.649C554.761 600.951 561.467 601.277 567.907 602.104C580.791 603.758 592.517 607.407 600.784 616.782C609.102 626.214 609.153 638.754 608.166 652.114C608.037 653.864 607.89 655.629 607.743 657.402C607.33 662.362 606.912 667.38 606.864 672.299C606.8 678.986 607.417 685.543 609.673 691.628C612.268 698.628 616.524 704.911 621.411 710.847C624.856 715.032 628.632 719.064 632.371 723.056C633.93 724.721 635.482 726.378 637.001 728.036C647.365 739.352 656.208 750.758 655.849 765.306C655.501 779.423 648.259 791.323 638.498 802.233C633.62 807.686 628.124 812.879 622.566 817.969C621.235 819.188 619.9 820.401 618.569 821.611C614.348 825.447 610.168 829.246 606.288 833.064C602.603 836.692 598.928 840.569 595.219 844.481C593.827 845.95 592.431 847.423 591.027 848.891C585.877 854.273 580.624 859.579 575.122 864.289C564.115 873.712 552.16 880.708 538.128 881.165C523.831 881.631 512.579 872.627 501.276 862.468C500.203 861.502 499.128 860.527 498.051 859.549C493.482 855.399 488.862 851.204 484.012 847.557C478.014 843.046 471.631 839.345 464.489 837.575C457.118 835.748 449.272 836.333 441.338 837.895C435.513 839.041 429.605 840.723 423.785 842.38C421.686 842.977 419.598 843.571 417.53 844.136C401.841 848.42 387.318 850.98 376.44 841.135C365.768 831.478 365.278 817.434 367.341 801.963C367.988 797.111 368.88 792.156 369.777 787.17C370.311 784.204 370.847 781.227 371.334 778.255C372.637 770.309 373.586 762.433 373.176 755.056C372.721 746.87 371.324 738.772 369.941 730.757C369.392 727.579 368.846 724.414 368.362 721.262C366.653 710.134 365.705 699.121 368.058 688.044Z" stroke="white"/>
		<path opacity="0.2" d="M375.347 385.176C380.573 362.424 386.712 338.25 396.929 317.563C407.142 296.884 421.409 279.735 442.868 270.971C464.007 262.338 485.628 265.147 506.916 273.125C526.579 280.494 545.901 292.25 564.242 303.409C565.769 304.338 567.289 305.263 568.802 306.181C604.264 327.694 640.12 353.927 646.624 394.611C649.793 414.434 644.341 432.705 634.946 450.011C626.395 465.762 614.6 480.673 603.108 495.204C601.965 496.648 600.826 498.088 599.693 499.526C596.588 503.465 593.493 507.494 590.381 511.546C579.844 525.266 569.112 539.239 557.135 550.805C541.633 565.775 524.11 576.646 502.342 577.664C455.821 579.837 413.892 548.47 388.147 509.482C364.037 472.969 365.517 427.979 375.347 385.176Z" stroke="white"/>
		<path opacity="0.3" d="M113.89 515.125C125.586 475.269 144.003 435.542 180.278 415.694C215.954 396.175 260.115 398.851 297.76 414.479C331.085 428.312 349.149 461.137 366.473 493.07C366.999 494.04 367.528 495.013 368.058 495.987C375.904 510.425 383.966 525.259 389.243 540.426C394.873 556.609 397.316 573.128 392.953 589.891C384.176 623.606 353.497 645.587 322.523 662.01C292.975 677.677 260.502 681.499 227.227 677.68C222.624 677.152 217.941 676.671 213.221 676.187C196.822 674.504 179.968 672.773 164.419 668.843C144.41 663.786 126.656 655.106 114.92 638.27C102.762 620.829 99.4792 600.334 100.754 579.035C102.029 557.731 107.861 535.668 113.89 515.125Z" stroke="white"/>
	</symbol>
	<symbol id="live-ic1" viewBox="0 0 64 64">
		<path d="M54.2355 34.3871L44.7872 36.917L42.0749 35.3548C42.4294 34.2924 42.6669 33.1801 42.6669 32.0005C42.6669 30.8217 42.4294 29.7068 42.0749 28.6469L44.7872 27.0802L54.2355 29.6133L55.3395 25.493L50.0128 24.0639L55.2377 21.0476L53.1046 17.3516L47.8797 20.3685L49.3062 15.0437L45.1859 13.9391L42.6547 23.3855L39.9462 24.9497C38.4422 23.2562 36.4384 22.0185 34.1337 21.5481V18.4684L41.0509 11.5513L38.0339 8.53494L34.1337 12.4351V6.3999H29.8675V12.4338L25.9673 8.53366L22.9504 11.55L29.8675 18.4671V21.5468C27.5629 22.0172 25.559 23.2549 24.055 24.9471L21.3465 23.3849L18.8153 13.9385L14.695 15.0431L16.1216 20.3679L10.8966 17.3509L8.7635 21.0469L13.9885 24.0633L8.66174 25.4924L9.76574 29.6127L19.2141 27.0796L21.9264 28.6463C21.5718 29.7042 21.3344 30.821 21.3344 31.9999C21.3344 33.1794 21.5718 34.2917 21.9264 35.3541L19.2141 36.9164L9.76446 34.3871L8.66046 38.5074L13.9872 39.9327L8.76222 42.9497L10.8953 46.645L16.1203 43.6287L14.6937 48.9573L18.8141 50.062L21.3453 40.6117L24.0537 39.0495C25.5577 40.7449 27.5616 41.9826 29.8662 42.4498V45.5327L22.9497 52.4498L25.9667 55.4668L29.8669 51.5666V57.5999H34.1331V51.5666L38.0333 55.4668L41.0502 52.4498L34.1331 45.5333V42.4505C36.4377 41.9839 38.4416 40.7461 39.9456 39.0501L42.6541 40.6124L45.1853 50.0626L49.3056 48.958L47.879 43.6332L53.1014 46.6457L55.2371 42.9503L50.0121 39.9333L55.3389 38.5081L54.2355 34.3871ZM32 38.3999C28.4646 38.3999 25.6 35.5333 25.6 31.9999C25.6 28.4652 28.4646 25.5999 32 25.5999C35.5334 25.5999 38.4 28.4652 38.4 31.9999C38.4 35.5333 35.5334 38.3999 32 38.3999Z" />
	</symbol>
	<symbol id="live-ic2" viewBox="0 0 64 64">
		<path d="M21.3331 34.1329C22.5112 34.1329 23.4663 33.1779 23.4663 31.9998C23.4663 30.8217 22.5112 29.8667 21.3331 29.8667C20.155 29.8667 19.2 30.8217 19.2 31.9998C19.2 33.1779 20.155 34.1329 21.3331 34.1329Z" />
		<path d="M32 40.5332C33.1795 40.5332 34.1331 41.4874 34.1331 42.667C34.1331 43.8458 33.1795 44.8001 32 44.8001C30.8205 44.8001 29.8669 43.8458 29.8669 42.667C29.8669 41.4874 30.8205 40.5332 32 40.5332Z" />
		<path d="M34.1331 29.8671V19.2002H29.8669V32.0002C29.8669 33.1797 30.8205 34.134 32 34.134H44.8V29.8671H34.1331Z" />
		<path d="M52.4954 37.8714C53.0291 36.0026 53.3331 34.0378 53.3331 32.0001C53.3331 30.0935 53.0579 28.2542 52.5894 26.4961L54.4749 24.6106C58.6419 20.4436 58.6419 13.6916 54.4749 9.52519C50.3104 5.35879 43.5558 5.35879 39.3894 9.52519L37.5046 11.4106C35.7459 10.9422 33.9066 10.667 32 10.667C30.0922 10.667 28.2541 10.9422 26.4954 11.4106L24.6106 9.52519C20.4435 5.35879 13.6915 5.35879 9.52512 9.52519C5.35808 13.6903 5.35808 20.4442 9.52512 24.6106L11.4106 26.4961C10.9421 28.2542 10.6669 30.0916 10.6669 32.0001C10.6669 38.6797 13.744 44.6394 18.5517 48.5517L14.9331 57.6001H19.5296L22.1958 50.9332C25.1334 52.4583 28.4627 53.3332 32 53.3332C34.0378 53.3332 36.0045 53.0292 37.8707 52.4954C39.7478 55.5457 43.0893 57.6001 46.9331 57.6001C52.823 57.6001 57.6 52.8231 57.6 46.9332C57.6 43.0874 55.5456 39.7479 52.4954 37.8714ZM42.4064 12.5422C43.6147 11.3338 45.223 10.667 46.9331 10.667C48.6419 10.667 50.2483 11.3338 51.4579 12.5422C53.9539 15.0375 53.9539 19.0983 51.4579 21.5943L50.9082 22.1441C48.8877 18.2778 45.7229 15.113 41.856 13.0919L42.4064 12.5422ZM12.5421 21.5937C11.3331 20.3834 10.6669 18.7751 10.6669 17.067C10.6669 15.3588 11.3331 13.7498 12.5421 12.5422C15.0374 10.0462 19.0982 10.0462 21.5942 12.5422L22.144 13.0919C18.2771 15.1105 15.1104 18.2778 13.0918 22.1441L12.5421 21.5937ZM36.2669 46.9332C36.2669 47.458 36.3482 47.9623 36.4205 48.4666C35.008 48.8455 33.5315 49.0669 32 49.0669C22.5747 49.0669 14.9331 41.4209 14.9331 32.0001C14.9331 22.5748 22.5747 14.9338 32 14.9338C41.4208 14.9338 49.0669 22.5748 49.0669 32.0001C49.0669 33.5316 48.8454 35.0087 48.4666 36.4212C47.9622 36.3482 47.4579 36.267 46.9331 36.267C41.0438 36.267 36.2669 41.042 36.2669 46.9332ZM53.3331 48.5332H48.5331V53.3332H45.3331V48.5332H40.5331V45.3332H45.3331V40.5332H48.5331V45.3332H53.3331V48.5332Z"/>
	</symbol>
	<symbol id="live-ic3" viewBox="0 0 64 64">
		<path d="M45.5168 23.4668C39.1622 23.4668 33.5123 26.4543 29.8669 31.0873V23.4668H31.2877C37.5706 23.4668 42.6669 18.3749 42.6669 12.0895V6.3999H36.9792C30.6957 6.3999 25.6 11.4917 25.6 17.7765V19.0079C23.0355 16.4914 19.5251 14.933 15.6454 14.933H8.53312V22.0415C8.53312 29.8949 14.8979 36.2668 22.7546 36.2668H25.6V57.5999H29.8669V53.333H35.5501C46.5459 53.333 55.4669 44.4229 55.4669 33.4252V23.4668H45.5168ZM29.8669 17.7765C29.8669 13.8559 33.0579 10.6661 36.9792 10.6661H38.4V12.0889C38.4 16.0108 35.2083 19.1999 31.2877 19.1999H29.8669V17.7765ZM25.6 31.9999H22.7546C17.2666 31.9999 12.8 27.5333 12.8 22.0415V19.1999H15.6454C21.1334 19.1999 25.6 23.6665 25.6 29.1583V31.9999ZM51.2 33.4252C51.2 42.0505 44.1792 49.0668 35.5501 49.0668H29.8669V43.3746C29.8669 34.7493 36.8877 27.733 45.5168 27.733H51.2V33.4252Z" />
	</symbol>
	<symbol id="star" viewBox="0 0 12 12">
		<path d="M5.45624 0.960125C5.50662 0.859013 5.58419 0.77395 5.68024 0.714492C5.77629 0.655033 5.88702 0.623535 5.99999 0.623535C6.11296 0.623535 6.22369 0.655033 6.31974 0.714492C6.41579 0.77395 6.49336 0.859013 6.54374 0.960125L7.95374 3.81763L11.1037 4.27513C11.2157 4.29147 11.3209 4.33878 11.4075 4.41171C11.494 4.48465 11.5585 4.58031 11.5936 4.68792C11.6287 4.79553 11.633 4.9108 11.6061 5.02073C11.5792 5.13067 11.5221 5.2309 11.4412 5.31013L9.16124 7.53388L9.70124 10.6726C9.72056 10.7844 9.70821 10.8993 9.66559 11.0044C9.62297 11.1095 9.55177 11.2006 9.46006 11.2673C9.36835 11.3341 9.25979 11.3738 9.14667 11.382C9.03355 11.3902 8.92039 11.3666 8.81999 11.3139L5.99999 9.81388L3.17999 11.3139C3.07959 11.3666 2.96643 11.3902 2.85331 11.382C2.74019 11.3738 2.63163 11.3341 2.53992 11.2673C2.44821 11.2006 2.37701 11.1095 2.33439 11.0044C2.29177 10.8993 2.27942 10.7844 2.29874 10.6726L2.83874 7.53388L0.558741 5.31013C0.477907 5.2309 0.420812 5.13067 0.393895 5.02073C0.366977 4.9108 0.371307 4.79553 0.406397 4.68792C0.441486 4.58031 0.505939 4.48465 0.592489 4.41171C0.679039 4.33878 0.784243 4.29147 0.896241 4.27513L4.04624 3.81763L5.45624 0.960125Z" fill="#FFCC00"/>
	</symbol>
	<symbol id="phone" viewBox="0 0 24 24">
		<path d="M21.8853 15.8399C20.4358 15.8414 18.9954 15.6109 17.6187 15.1573C17.3184 15.0588 16.9975 15.0415 16.6884 15.1071C16.3793 15.1726 16.0931 15.3187 15.8587 15.5306L13.48 17.2479C10.5358 15.7831 8.15018 13.3974 6.68535 10.4533L8.34935 8.1386C8.58169 7.90563 8.74541 7.61318 8.82255 7.29332C8.89969 6.97346 8.88728 6.63854 8.78668 6.32527C8.33338 4.94847 8.10292 3.5081 8.10401 2.0586C8.10542 1.82467 8.06073 1.59276 7.97251 1.3761C7.88428 1.15944 7.75425 0.962278 7.58982 0.795875C7.4254 0.629472 7.22981 0.497084 7.01423 0.406271C6.79864 0.315458 6.56727 0.267998 6.33335 0.266602H1.98135C1.50891 0.266602 1.05582 0.454277 0.721753 0.788342C0.387688 1.12241 0.200012 1.5755 0.200012 2.04794C0.208477 7.79664 2.49589 13.3075 6.56085 17.3724C10.6258 21.4374 16.1366 23.7248 21.8853 23.7333C22.3578 23.7333 22.8109 23.5456 23.1449 23.2115C23.479 22.8775 23.6667 22.4244 23.6667 21.9519V17.6106C23.6639 17.14 23.4749 16.6897 23.1412 16.3579C22.8074 16.0261 22.3559 15.8399 21.8853 15.8399Z" />
	</symbol>

</svg>