<svg width="8" height="123" viewBox="0 0 8 123" fill="none" xmlns="http://www.w3.org/2000/svg">
<path d="M0.329999 122.567L0.329999 121.147L4.81 119.367L0.329999 117.587L0.329999 116.167L7 118.987L7 119.767L0.329999 122.567ZM0.329999 105.291L1.45 105.291L1.45 107.691L2.94 107.691L2.94 105.391L4.06 105.391L4.06 107.691L5.88 107.691L5.88 105.291L7 105.291L7 108.991L0.329999 108.991L0.329999 105.291ZM0.329998 97.6304L0.329998 95.7004C0.329998 94.9671 0.496665 94.4004 0.829998 94.0004C1.20333 93.5604 1.70333 93.3404 2.33 93.3404C3.02333 93.3404 3.54667 93.6004 3.9 94.1204C4.04 94.3204 4.13667 94.5638 4.19 94.8504L7 92.7704L7 94.3904L4.32 96.1704L4.32 96.3304L7 96.3304L7 97.6304L0.329998 97.6304ZM1.39 96.3304L3.4 96.3304L3.4 95.9604C3.4 95.8538 3.39333 95.7504 3.38 95.6504C3.36 95.5438 3.32333 95.4071 3.27 95.2404C3.21 95.0738 3.10667 94.9404 2.96 94.8404C2.80667 94.7338 2.61667 94.6804 2.39 94.6804C2.16333 94.6804 1.97667 94.7304 1.83 94.8304C1.67667 94.9304 1.57333 95.0638 1.52 95.2304C1.46 95.3971 1.42333 95.5304 1.41 95.6304C1.39667 95.7304 1.39 95.8338 1.39 95.9404L1.39 96.3304ZM1.45 81.8882L1.45 83.3882L7 83.3882L7 84.6882L1.45 84.6882L1.45 86.1882L0.329998 86.1882L0.329998 81.8882L1.45 81.8882ZM0.329997 70.9644L1.45 70.9644L1.45 73.3644L2.94 73.3644L2.94 71.0644L4.06 71.0644L4.06 73.3644L5.88 73.3644L5.88 70.9644L7 70.9644L7 74.6644L0.329997 74.6644L0.329997 70.9644ZM0.329997 63.3035L0.329997 61.3735C0.329997 60.6401 0.496663 60.0735 0.829997 59.6735C1.20333 59.2335 1.70333 59.0135 2.33 59.0135C3.02333 59.0135 3.54666 59.2735 3.9 59.7935C4.04 59.9935 4.13666 60.2368 4.19 60.5235L7 58.4435L7 60.0635L4.32 61.8435L4.32 62.0035L7 62.0035L7 63.3035L0.329997 63.3035ZM1.39 62.0035L3.4 62.0035L3.4 61.6335C3.4 61.5268 3.39333 61.4235 3.38 61.3235C3.36 61.2168 3.32333 61.0801 3.27 60.9135C3.21 60.7468 3.10666 60.6135 2.96 60.5135C2.80666 60.4068 2.61666 60.3535 2.39 60.3535C2.16333 60.3535 1.97666 60.4035 1.83 60.5035C1.67666 60.6035 1.57333 60.7368 1.52 60.9035C1.46 61.0701 1.42333 61.2035 1.41 61.3035C1.39666 61.4035 1.39 61.5068 1.39 61.6135L1.39 62.0035ZM7 46.6213L5.6 47.2113L5.6 49.9013L7 50.4913L7 51.9013L0.329996 49.0313L0.329996 48.0113L7 45.2213L7 46.6213ZM4.54 49.4913L4.54 47.5913L2.14 48.5413L4.54 49.4913ZM4.55 25.9286L3.43 25.9286L3.43 22.8686L3.51 22.8686C4.70333 22.8686 5.62333 23.1952 6.27 23.8486C6.85666 24.4352 7.15 25.2252 7.15 26.2186C7.15 27.2319 6.85 28.0386 6.25 28.6386C5.59 29.2986 4.73333 29.6286 3.68 29.6286C2.68 29.6286 1.85333 29.3019 1.2 28.6486C0.519995 27.9819 0.179995 27.1052 0.179995 26.0186C0.179995 25.4319 0.296662 24.9186 0.529996 24.4786C0.789995 23.9652 1.19666 23.5486 1.75 23.2286L2.36 24.3586C2.01333 24.5386 1.75 24.7986 1.57 25.1386C1.43 25.4186 1.36 25.7319 1.36 26.0786C1.36 26.7052 1.55666 27.2186 1.95 27.6186C2.38333 28.0652 2.97 28.2886 3.71 28.2886C4.41 28.2886 4.97333 28.0686 5.4 27.6286C5.78 27.2352 5.97 26.7419 5.97 26.1486C5.97 25.6286 5.83666 25.1919 5.57 24.8386C5.32333 24.5186 4.98333 24.3086 4.55 24.2086L4.55 25.9286ZM0.329995 11.5718L1.45 11.5718L1.45 13.9718L2.94 13.9718L2.93999 11.6718L4.06 11.6718L4.06 13.9718L5.88 13.9718L5.88 11.5718L7 11.5718L7 15.2718L0.329995 15.2718L0.329995 11.5718ZM0.329994 3.9109L0.329994 2.6109L5.87999 2.6109L5.87999 0.550898L6.99999 0.550898L6.99999 3.9109L0.329994 3.9109Z" fill="white"/>
</svg>
